<svg width="63" height="21" viewBox="0 0 63 21" fill="none" xmlns="http://www.w3.org/2000/svg">
<path d="M23.6439 1.88045C23.102 1.09035 22.2152 0.738159 21.4069 0.738159C20.2654 0.738159 19.2025 1.35372 18.7332 2.67367C18.1913 1.35528 17.4333 0.738159 16.2238 0.738159C15.032 0.738159 14.1482 1.35372 13.6759 2.67367H13.6434V1.30853C13.6315 1.11996 13.4805 0.967241 13.2925 0.959449H11.4893C11.2835 0.959449 11.1162 1.1262 11.1162 1.33502V11.7824C11.1295 11.9694 11.2776 12.1143 11.4626 12.1268H13.3976C13.6034 12.1268 13.7692 11.9569 13.7692 11.7497V6.20962C13.7692 5.00188 13.7129 3.32974 15.1016 3.32974C16.4755 3.32974 16.2963 5.04396 16.2963 6.20962V11.7481C16.2963 11.9491 16.4503 12.1096 16.6457 12.1252H18.5762C18.785 12.1252 18.9493 11.9554 18.9493 11.7481V6.20962C18.9493 5.61588 18.9316 4.73384 19.1285 4.20711C19.3268 3.68038 19.8169 3.35156 20.2847 3.35156C20.8458 3.35156 21.2781 3.54947 21.4217 4.25074C21.5135 4.66995 21.4765 5.7686 21.4765 6.20962V11.7481C21.4765 11.9491 21.6319 12.1096 21.8244 12.1252H23.7564C23.9622 12.1252 24.128 11.9554 24.128 11.7481L24.1309 5.15616C24.1309 4.03569 24.2553 2.75938 23.6439 1.88045Z" fill="white"/>
<path d="M49.1328 0.739868C46.3347 0.739868 44.7832 3.26911 44.7832 6.51989C44.7832 9.75196 46.3155 12.3451 49.1328 12.3451C51.8391 12.3451 53.5549 9.81742 53.5549 6.63053C53.5623 3.33301 52.0049 0.739868 49.1328 0.739868ZM49.1328 10.1914C47.6168 10.1914 47.6331 7.46582 47.6331 6.18951C47.6331 4.91632 47.7249 2.87173 49.1476 2.87173C49.7605 2.87173 50.1972 3.15535 50.4119 3.88311C50.6665 4.7184 50.7021 5.77187 50.7021 6.65391C50.708 7.99411 50.6355 10.1914 49.1328 10.1914Z" fill="white"/>
<path d="M34.9568 10.2157C34.6044 9.69829 34.2313 9.28064 34.2313 8.32847V5.15561C34.2313 3.81385 34.3187 2.57961 33.3786 1.65394C32.6369 0.904358 31.4066 0.640991 30.4665 0.640991C28.6278 0.640991 26.5714 1.36252 26.1421 3.75619C26.0962 4.01176 26.2709 4.14579 26.4293 4.18319L28.3036 4.39513C28.4783 4.38733 28.6071 4.20656 28.6411 4.02267C28.7995 3.19829 29.4583 2.8009 30.1956 2.8009C30.5938 2.8009 31.0454 2.95518 31.2778 3.33075C31.5517 3.7484 31.5147 4.32188 31.5147 4.80498L31.5132 5.06367C30.3925 5.19925 28.9269 5.28496 27.8772 5.77117C26.6647 6.32128 25.8164 7.44643 25.8164 9.09831C25.8164 11.213 27.0807 12.2712 28.7077 12.2712C30.0816 12.2712 30.8366 11.9299 31.8967 10.7907C32.246 11.3268 32.363 11.5886 33.0055 12.1496C33.1521 12.2307 33.3371 12.2213 33.4645 12.1029L33.4674 12.106C33.8538 11.7476 34.5541 11.1008 34.9479 10.7549C35.1033 10.6193 35.0811 10.398 34.9568 10.2157ZM31.5132 7.13787C31.5132 7.93109 31.5339 8.59184 31.1505 9.29623C30.8455 9.86971 30.3555 10.2203 29.8166 10.2203C29.0719 10.2203 28.6367 9.6266 28.6367 8.74612C28.6367 7.01164 30.1142 6.69685 31.5132 6.69685V7.13787Z" fill="white"/>
<path d="M62.4461 1.96901C61.9028 1.06826 61.0516 0.737887 60.1855 0.736328C58.8516 0.736328 58.0892 1.41734 57.5503 2.84637H57.5192V1.24904C57.4822 1.08541 57.34 0.963852 57.1727 0.95606H55.3799C55.183 0.95606 55.0246 1.10566 55.0068 1.29734L55.0098 11.7478C55.0098 11.9489 55.1623 12.1125 55.3592 12.1281H57.2823C57.4911 12.1281 57.6583 11.9582 57.6613 11.7478V6.1252C57.6613 5.41925 57.6954 4.78499 57.9707 4.14606C58.1854 3.6427 58.6162 3.31077 59.0899 3.31077C60.4224 3.31077 60.295 4.98291 60.295 6.1252V11.7992C60.3098 11.9753 60.4623 12.1125 60.6355 12.1296H62.5764C62.7704 12.1296 62.9258 11.9816 62.9525 11.7992V5.2229C62.9525 4.21151 62.9525 2.80741 62.4461 1.96901Z" fill="white"/>
<path d="M43.5154 9.29775C42.4051 8.64011 41.1156 8.44688 39.8898 8.4796L43.1882 3.53019C43.4917 3.08449 43.6649 2.80554 43.6649 2.59049V1.31106C43.6649 1.08665 43.5036 0.932373 43.2978 0.932373H36.9422C36.7438 0.932373 36.5839 1.08354 36.5839 1.31106V2.80554C36.5839 3.02839 36.7438 3.18111 36.951 3.18111H40.2732L36.4566 8.94088C36.2256 9.31022 36.2227 9.72475 36.2227 9.96785V11.4842C36.2227 11.7023 36.458 11.9532 36.6772 11.8254C38.8401 10.6177 41.4339 10.7377 43.3881 11.8161C43.6309 11.947 43.8559 11.6914 43.8559 11.4732V9.87747C43.8337 9.66397 43.7671 9.44424 43.5154 9.29775Z" fill="white"/>
<path d="M42.2862 13.0802C41.8909 12.5644 38.4859 12.1203 36.4088 13.6553C36.092 13.8906 36.1438 14.2163 36.5006 14.1727C37.6687 14.0277 40.2743 13.6989 40.7362 14.3223C41.1996 14.9472 40.2195 17.5278 39.7798 18.6779C39.6451 19.027 39.9323 19.1673 40.2313 18.9054C42.1841 17.1943 42.6845 13.6007 42.2862 13.0802Z" fill="white"/>
<path d="M38.7028 15.2433C34.6345 17.0619 30.2094 17.9377 26.1826 17.9377C20.2207 17.9377 14.4425 16.2189 9.77463 13.3577C9.3675 13.1052 9.06401 13.5462 9.40303 13.8688C13.7304 17.9845 19.4494 20.4592 25.8021 20.4592C30.3352 20.4592 35.5953 18.9585 39.2284 16.1409C39.8279 15.6734 39.3172 14.9722 38.7028 15.2433Z" fill="white"/>
<path d="M9.60375 10.2157C9.24992 9.69829 8.87536 9.28064 8.87536 8.32847V5.15561C8.87536 3.81385 8.96567 2.57961 8.02558 1.65394C7.28239 0.904358 6.05361 0.640991 5.11056 0.640991C3.27183 0.640991 1.21991 1.36252 0.786135 3.75619C0.741721 4.01177 0.919376 4.14579 1.07334 4.18319L2.95353 4.39513C3.12526 4.38733 3.25406 4.20656 3.28811 4.02267C3.44652 3.19829 4.1068 2.8009 4.84407 2.8009C5.24084 2.8009 5.6909 2.95518 5.92777 3.33075C6.19721 3.7484 6.1602 4.32188 6.1602 4.80498V5.06679C5.04097 5.20392 3.57532 5.28963 2.52419 5.77585C1.31614 6.32284 0.461914 7.44799 0.461914 9.09987C0.461914 11.2146 1.72919 12.2727 3.35621 12.2727C4.73304 12.2727 5.48511 11.9314 6.54512 10.7923C6.89599 11.3284 7.01146 11.5902 7.65398 12.1512C7.79907 12.2322 7.98265 12.2229 8.11145 12.1044L8.11737 12.1075C8.50229 11.7491 9.20254 11.1024 9.59931 10.7564C9.75624 10.6162 9.72959 10.398 9.60375 10.2157ZM6.1602 7.13787C6.1602 7.93109 6.18093 8.59184 5.79897 9.29623C5.49251 9.86971 5.00544 10.2203 4.46063 10.2203C3.71892 10.2203 3.28811 9.6266 3.28811 8.74612C3.28811 7.01164 4.76413 6.69685 6.1602 6.69685V7.13787Z" fill="white"/>
</svg>
