<svg width="46" height="46" viewBox="0 0 46 46" fill="none" xmlns="http://www.w3.org/2000/svg">
<path d="M26.3197 21.5717C27.8518 20.5407 28.8593 18.7916 28.8593 16.8061C28.8593 14.0336 26.8932 11.7193 24.2788 11.1828V9.3412C24.2787 9.02501 24.0222 8.7677 23.7052 8.7677C23.3881 8.7677 23.1308 9.02501 23.1308 9.3412V11.0651C23.1266 11.0651 23.1224 11.0651 23.119 11.0651H20.8106V9.3412C20.8107 9.02501 20.5534 8.7677 20.2363 8.7677C19.9193 8.7677 19.662 9.02501 19.662 9.3412V11.0651H17.0114V11.0634H14.5079C14.1909 11.0634 13.9336 11.3208 13.9336 11.6378C13.9336 11.9548 14.1909 12.2121 14.508 12.2121H16.2302V32.8788H14.508C14.1909 32.8788 13.9336 33.1361 13.9336 33.4532C13.9336 33.7702 14.1909 34.0275 14.508 34.0275H19.662V35.7489C19.662 36.0659 19.9193 36.3233 20.2364 36.3233C20.5534 36.3233 20.8107 36.0659 20.8107 35.7489V34.0275H23.1309V35.7489C23.1309 36.0659 23.3882 36.3233 23.7052 36.3233C24.0223 36.3233 24.2787 36.0659 24.2787 35.7489V34.0275H24.8413C28.3286 34.0275 31.1558 31.2003 31.1558 27.7121C31.1558 24.7336 29.0939 22.2377 26.3197 21.5717ZM17.378 12.2138H23.1191C24.3451 12.2138 25.4989 12.6915 26.3659 13.5584C27.2337 14.4254 27.7114 15.5792 27.7114 16.8061C27.7114 18.033 27.2337 19.186 26.3659 20.0529C25.5191 20.9006 24.3998 21.3757 23.2049 21.3976H17.378V12.2138ZM28.4943 31.366C27.5188 32.3423 26.2212 32.8788 24.8413 32.8788H17.378V22.5471H23.1191C23.1468 22.5471 23.1746 22.5463 23.2015 22.5455H24.8413C26.2213 22.5455 27.5188 23.0837 28.4943 24.0591C29.4706 25.0346 30.008 26.3322 30.008 27.7121C30.008 29.0929 29.4706 30.3897 28.4943 31.366Z" fill="white"/>
<circle cx="22.5455" cy="22.5455" r="21.5455" stroke="white" stroke-width="2"/>
</svg>
