<svg width="46" height="46" viewBox="0 0 46 46" fill="none" xmlns="http://www.w3.org/2000/svg">
<path d="M31.6275 18.7241C31.4986 18.8445 32.0014 18.6515 22.6968 21.6004C22.4786 21.6694 22.9418 21.7739 13.6442 18.8272C13.6436 18.8272 13.6429 18.8266 13.6423 18.8266C13.3525 18.7359 13.2368 18.4041 13.3186 18.1991C13.3186 18.0997 13.2495 18.2383 22.1499 6.73903C22.3511 6.4809 22.7399 6.48084 22.9411 6.73903C31.91 18.3272 31.7725 18.0962 31.7725 18.1991C31.8376 18.3618 31.7653 18.6182 31.6275 18.7241Z" fill="white"/>
<path d="M22.1634 38.3666L13.4133 27.9146C13.0934 27.5324 13.4726 26.9665 13.9477 27.1171L22.5467 29.8424L31.1457 27.1171C31.6207 26.9665 32.0002 27.5323 31.6802 27.9146L22.9301 38.3666C22.7303 38.6054 22.3629 38.605 22.1634 38.3666Z" fill="white"/>
<path d="M31.4472 25.9374C22.0601 28.9125 22.6618 28.7337 22.5459 28.7337C22.4244 28.7337 22.9993 28.9022 13.6446 25.9374C13.1808 25.7894 13.1811 25.1317 13.6446 24.9837L16.0084 24.2345C16.1196 24.1992 15.7347 24.0998 22.3946 26.2105C22.4894 26.2405 22.5969 26.2422 22.6971 26.2105L28.9322 24.2345C29.0388 24.2006 28.877 24.1691 31.4472 24.9837C31.911 25.1317 31.9107 25.7894 31.4472 25.9374Z" fill="white"/>
<path d="M31.4472 22.386C22.0601 25.3611 22.6618 25.1823 22.5459 25.1823C22.4244 25.1823 22.9993 25.3508 13.6446 22.386C13.1808 22.238 13.1811 21.5802 13.6446 21.4323C16.2094 20.6194 16.0517 20.6489 16.16 20.6833C22.8595 22.8066 22.4299 22.6823 22.5459 22.6823C22.6616 22.6823 22.23 22.8073 28.9318 20.6833C29.0388 20.6493 28.8786 20.6182 31.4472 21.4323C31.911 21.5804 31.9107 22.2381 31.4472 22.386Z" fill="white"/>
<circle cx="22.5455" cy="22.5455" r="21.5455" stroke="white" stroke-width="2"/>
</svg>
