<svg width="38" height="22" viewBox="0 0 38 22" fill="none" xmlns="http://www.w3.org/2000/svg">
<path d="M36.5229 6.9799C36.9493 6.9799 37.295 6.6345 37.295 6.20812L37.2952 2.60806C37.2952 1.87705 36.7027 1.28425 35.9714 1.28425L2.06251 1.28174C1.33122 1.28174 0.738701 1.87453 0.738422 2.60555V6.20533C0.738422 6.63171 1.08382 6.97739 1.5102 6.97767C1.93686 6.97767 2.28226 7.32335 2.28226 7.74973L2.2817 14.8443C2.2817 15.2707 1.93602 15.6164 1.50964 15.6164C1.08327 15.6164 0.737584 15.962 0.737584 16.3884L0.737305 19.9885C0.737305 20.7195 1.3301 21.312 2.06112 21.3123L35.9703 21.3145C36.7013 21.3145 37.2941 20.722 37.2941 19.991L37.2944 16.3909C37.2944 15.9646 36.9487 15.6189 36.5224 15.6189C36.096 15.6189 35.7503 15.2732 35.7503 14.8465L35.7508 7.75196C35.7508 7.32558 36.0965 6.9799 36.5229 6.9799Z" fill="url(#paint0_linear_8_13838)"/>
<path d="M0.737584 16.6401L0.737305 19.9886C0.737305 20.7196 1.32982 21.3121 2.06084 21.3124L35.97 21.3147C36.7013 21.3147 37.2938 20.7221 37.2938 19.9911L37.2941 16.6404H0.737584V16.6401Z" fill="url(#paint1_linear_8_13838)"/>
<path d="M2.22656 11.5229L4.65722 13.9536V11.5229H2.22656Z" fill="url(#paint2_linear_8_13838)"/>
<path d="M12.1045 1.35547L14.7362 3.98717H12.1045V1.35547Z" fill="url(#paint3_linear_8_13838)"/>
<path d="M33.5747 18.8656H4.79097C4.31153 18.8656 3.92285 18.4772 3.92285 17.9974V4.59935C3.92285 4.11964 4.31153 3.73096 4.79097 3.73096H33.5747C34.0541 3.73096 34.4428 4.11964 34.4428 4.59935V17.9974C34.4428 18.4769 34.0541 18.8656 33.5747 18.8656Z" fill="url(#paint4_linear_8_13838)"/>
<path d="M16.2866 15.0619C16.2339 14.9649 16.1577 14.8915 16.058 14.8416C15.961 14.789 15.8461 14.7627 15.7131 14.7627C15.4831 14.7627 15.2989 14.8389 15.1604 14.9912C15.0218 15.1408 14.9526 15.3417 14.9526 15.5938C14.9526 15.8626 15.0246 16.0731 15.1687 16.2255C15.3155 16.3751 15.5164 16.4499 15.7713 16.4499C15.9458 16.4499 16.0926 16.4056 16.2118 16.3169C16.3337 16.2283 16.4223 16.1008 16.4777 15.9346H15.5759V15.411H17.1219V16.0717C17.0692 16.249 16.9792 16.4139 16.8517 16.5663C16.7271 16.7186 16.5678 16.8419 16.3738 16.9361C16.1799 17.0303 15.961 17.0774 15.7172 17.0774C15.4291 17.0774 15.1715 17.0151 14.9443 16.8904C14.7199 16.763 14.5439 16.587 14.4165 16.3626C14.2918 16.1382 14.2295 15.8819 14.2295 15.5938C14.2295 15.3057 14.2918 15.0494 14.4165 14.825C14.5439 14.5978 14.7199 14.4219 14.9443 14.2972C15.1687 14.1698 15.425 14.1061 15.7131 14.1061C16.0622 14.1061 16.3558 14.1906 16.5941 14.3596C16.8351 14.5286 16.9944 14.7627 17.072 15.0619H16.2866Z" fill="black"/>
<path d="M17.8729 14.4967C17.7482 14.4967 17.6457 14.4607 17.5654 14.3887C17.4878 14.3139 17.449 14.2224 17.449 14.1144C17.449 14.0036 17.4878 13.9121 17.5654 13.8401C17.6457 13.7653 17.7482 13.7279 17.8729 13.7279C17.9948 13.7279 18.0945 13.7653 18.1721 13.8401C18.2524 13.9121 18.2926 14.0036 18.2926 14.1144C18.2926 14.2224 18.2524 14.3139 18.1721 14.3887C18.0945 14.4607 17.9948 14.4967 17.8729 14.4967ZM18.2261 14.7377V17.0566H17.5155V14.7377H18.2261Z" fill="black"/>
<path d="M19.9047 15.3279H19.5224V17.0566H18.8117V15.3279H18.5541V14.7377H18.8117V14.6713C18.8117 14.3859 18.8935 14.1698 19.0569 14.023C19.2204 13.8734 19.46 13.7986 19.7759 13.7986C19.8285 13.7986 19.8673 13.7999 19.8922 13.8027V14.4053C19.7565 14.397 19.6609 14.4164 19.6055 14.4635C19.5501 14.5106 19.5224 14.5951 19.5224 14.717V14.7377H19.9047V15.3279Z" fill="black"/>
<path d="M21.531 16.454V17.0566H21.1695C20.9118 17.0566 20.711 16.9943 20.5669 16.8696C20.4228 16.7422 20.3508 16.5358 20.3508 16.2504V15.3279H20.0682V14.7377H20.3508V14.1726H21.0614V14.7377H21.5269V15.3279H21.0614V16.2587C21.0614 16.328 21.0781 16.3779 21.1113 16.4083C21.1446 16.4388 21.2 16.454 21.2775 16.454H21.531Z" fill="black"/>
<path d="M22.687 15.5938C22.687 15.3057 22.7493 15.0494 22.874 14.825C22.9987 14.5978 23.1718 14.4219 23.3935 14.2972C23.6179 14.1698 23.8714 14.1061 24.154 14.1061C24.5003 14.1061 24.7967 14.1975 25.0433 14.3804C25.2899 14.5632 25.4547 14.8125 25.5378 15.1284H24.7565C24.6984 15.0065 24.6152 14.9137 24.5072 14.8499C24.4019 14.7862 24.2814 14.7544 24.1457 14.7544C23.9268 14.7544 23.7495 14.8306 23.6137 14.9829C23.478 15.1353 23.4101 15.3389 23.4101 15.5938C23.4101 15.8487 23.478 16.0523 23.6137 16.2047C23.7495 16.3571 23.9268 16.4333 24.1457 16.4333C24.2814 16.4333 24.4019 16.4014 24.5072 16.3377C24.6152 16.274 24.6984 16.1812 24.7565 16.0593H25.5378C25.4547 16.3751 25.2899 16.6244 25.0433 16.8073C24.7967 16.9874 24.5003 17.0774 24.154 17.0774C23.8714 17.0774 23.6179 17.0151 23.3935 16.8904C23.1718 16.763 22.9987 16.587 22.874 16.3626C22.7493 16.1382 22.687 15.8819 22.687 15.5938Z" fill="black"/>
<path d="M25.8317 15.893C25.8317 15.6548 25.876 15.4456 25.9647 15.2655C26.0561 15.0854 26.1794 14.9469 26.3345 14.8499C26.4897 14.753 26.6628 14.7045 26.854 14.7045C27.0175 14.7045 27.1601 14.7377 27.282 14.8042C27.4067 14.8707 27.5023 14.958 27.5688 15.066V14.7377H28.2794V17.0566H27.5688V16.7283C27.4995 16.8364 27.4026 16.9236 27.2779 16.9901C27.156 17.0566 27.0133 17.0899 26.8499 17.0899C26.6615 17.0899 26.4897 17.0414 26.3345 16.9444C26.1794 16.8447 26.0561 16.7048 25.9647 16.5247C25.876 16.3418 25.8317 16.1313 25.8317 15.893ZM27.5688 15.8972C27.5688 15.7199 27.5189 15.58 27.4192 15.4775C27.3222 15.375 27.2031 15.3237 27.0618 15.3237C26.9205 15.3237 26.8 15.375 26.7002 15.4775C26.6033 15.5772 26.5548 15.7157 26.5548 15.893C26.5548 16.0703 26.6033 16.2116 26.7002 16.3169C26.8 16.4194 26.9205 16.4707 27.0618 16.4707C27.2031 16.4707 27.3222 16.4194 27.4192 16.3169C27.5189 16.2144 27.5688 16.0745 27.5688 15.8972Z" fill="black"/>
<path d="M29.5041 15.1242C29.5873 14.9968 29.6912 14.897 29.8158 14.825C29.9405 14.7502 30.079 14.7128 30.2314 14.7128V15.465H30.0361C29.8588 15.465 29.7258 15.5038 29.6371 15.5814C29.5485 15.6562 29.5041 15.7891 29.5041 15.9803V17.0566H28.7935V14.7377H29.5041V15.1242Z" fill="black"/>
<path d="M30.4298 15.893C30.4298 15.6548 30.4741 15.4456 30.5627 15.2655C30.6542 15.0854 30.7775 14.9469 30.9326 14.8499C31.0877 14.753 31.2609 14.7045 31.4521 14.7045C31.6044 14.7045 31.743 14.7364 31.8676 14.8001C31.9951 14.8638 32.0948 14.9497 32.1668 15.0577V13.9814H32.8775V17.0566H32.1668V16.7242C32.1004 16.835 32.0048 16.9236 31.8801 16.9901C31.7582 17.0566 31.6155 17.0899 31.4521 17.0899C31.2609 17.0899 31.0877 17.0414 30.9326 16.9444C30.7775 16.8447 30.6542 16.7048 30.5627 16.5247C30.4741 16.3418 30.4298 16.1313 30.4298 15.893ZM32.1668 15.8972C32.1668 15.7199 32.117 15.58 32.0172 15.4775C31.9203 15.375 31.8011 15.3237 31.6599 15.3237C31.5186 15.3237 31.398 15.375 31.2983 15.4775C31.2013 15.5772 31.1529 15.7157 31.1529 15.893C31.1529 16.0703 31.2013 16.2116 31.2983 16.3169C31.398 16.4194 31.5186 16.4707 31.6599 16.4707C31.8011 16.4707 31.9203 16.4194 32.0172 16.3169C32.117 16.2144 32.1668 16.0745 32.1668 15.8972Z" fill="black"/>
<path d="M15.9275 6.0601C15.4316 5.5036 14.6074 5.28859 13.8722 5.61696C13.1531 5.93863 12.4621 6.35887 11.8299 6.71013C11.4476 6.92263 11.1343 7.13707 10.8548 7.35068C10.5524 7.21079 10.2157 7.13232 9.8608 7.13232C9.48803 7.13232 9.13593 7.21833 8.82208 7.37134C8.54592 7.16555 8.23626 6.95948 7.86154 6.75565C7.22602 6.41025 6.53131 5.99643 5.80923 5.68174C4.80094 5.24224 3.63434 5.81773 3.3727 6.88605C3.18506 7.65252 4.03726 8.41118 4.02916 9.17347C4.02916 9.17347 3.17585 10.8968 3.3956 11.7594C3.48635 12.1159 3.67845 12.4158 3.93115 12.6409L11.093 19.8028C11.1388 19.8547 11.188 19.9033 11.2391 19.9491C11.382 20.1102 11.5523 20.2428 11.7403 20.3419C11.7687 20.3573 11.7978 20.3715 11.8271 20.3849C11.8282 20.3855 11.8293 20.3861 11.8305 20.3863C11.8587 20.3995 11.8871 20.4118 11.9162 20.4232C11.9184 20.424 11.9206 20.4249 11.9229 20.4257C11.9505 20.4366 11.9784 20.4469 12.0066 20.4564C12.0103 20.4575 12.0136 20.4587 12.0173 20.4598C12.0441 20.4687 12.0714 20.4768 12.0988 20.4846C12.1035 20.4857 12.1083 20.4871 12.113 20.4883C12.1393 20.4955 12.1658 20.5019 12.1923 20.5078C12.1982 20.5092 12.2041 20.5103 12.2099 20.5117C12.2356 20.517 12.2613 20.5218 12.287 20.526C12.294 20.5271 12.301 20.5282 12.3079 20.5293C12.3328 20.5332 12.3576 20.5363 12.3828 20.5391C12.3906 20.5399 12.3987 20.5408 12.4068 20.5416C12.4308 20.5441 12.4548 20.5455 12.4791 20.5469C12.488 20.5475 12.497 20.548 12.5062 20.5483C12.5294 20.5494 12.5525 20.5497 12.576 20.5497C12.5858 20.5497 12.5958 20.5497 12.6059 20.5494C12.6282 20.5491 12.6508 20.548 12.6732 20.5469C12.684 20.5461 12.6949 20.5458 12.7058 20.5449C12.7276 20.5433 12.7491 20.541 12.7709 20.5385C12.7826 20.5371 12.7941 20.536 12.8055 20.5346C12.8267 20.5318 12.848 20.5282 12.8689 20.5246C12.8812 20.5226 12.8932 20.5209 12.9052 20.5184C12.9259 20.5145 12.9465 20.5098 12.9675 20.505C12.9798 20.5022 12.992 20.4997 13.0043 20.4966C13.0253 20.4913 13.0459 20.4852 13.0666 20.479C13.0786 20.4757 13.0909 20.4726 13.1029 20.4687C13.1252 20.4617 13.1473 20.4536 13.1691 20.4458C13.1797 20.4422 13.1903 20.4388 13.2006 20.4349C13.233 20.4226 13.2654 20.4092 13.2975 20.395C13.7468 20.1942 14.1852 19.9547 14.6054 19.7173C14.6892 19.6698 14.7727 19.6227 14.855 19.5758C15.0201 19.4819 15.1817 19.3898 15.3398 19.3018C15.562 19.1781 15.7614 19.0539 15.9443 18.9296C15.9532 18.9235 15.9616 18.9173 15.9705 18.9112C16.3525 19.1748 16.8158 19.3295 17.315 19.3295C17.8299 19.3295 18.3063 19.1647 18.6949 18.8861C18.8804 19.01 19.0825 19.1337 19.3081 19.2563C19.3877 19.2996 19.4681 19.344 19.5497 19.3892C20.0369 19.659 20.5552 19.9555 21.091 20.2079C21.1803 20.2501 21.2702 20.2911 21.3604 20.3302C21.3928 20.3445 21.4252 20.3573 21.4576 20.3693C21.4679 20.3732 21.4783 20.3763 21.4886 20.3799C21.4894 20.3802 21.4903 20.3805 21.4911 20.3808C21.5014 20.3844 21.5115 20.3877 21.5218 20.3911C21.5333 20.3947 21.5444 20.3989 21.5556 20.4023C21.5676 20.4059 21.5796 20.409 21.5914 20.4123C21.6117 20.4179 21.6318 20.4238 21.6522 20.4288C21.6542 20.4293 21.6556 20.4296 21.6575 20.4302C21.6687 20.4327 21.6799 20.4346 21.691 20.4372C21.712 20.4419 21.7329 20.4464 21.7539 20.4503C21.7653 20.4525 21.7765 20.4539 21.7879 20.4559C21.7974 20.4573 21.8066 20.4589 21.8161 20.4603C21.8287 20.462 21.8413 20.464 21.8535 20.4654C21.865 20.4668 21.8764 20.4679 21.8879 20.469C21.908 20.4709 21.9281 20.4732 21.9479 20.4746C21.9513 20.4749 21.9544 20.4751 21.9577 20.4751C21.9672 20.4757 21.9764 20.476 21.9859 20.4763C22.0085 20.4774 22.0309 20.4782 22.0535 20.4785C22.0635 20.4785 22.0733 20.4785 22.0834 20.4782H22.0864C22.0942 20.4782 22.1018 20.4782 22.1096 20.4779C22.1241 20.4777 22.1386 20.4771 22.1532 20.4765C22.1621 20.476 22.1713 20.4754 22.1802 20.4749C22.2009 20.4735 22.2213 20.4721 22.242 20.4701C22.2464 20.4696 22.2512 20.469 22.2556 20.4684C22.2626 20.4679 22.2696 20.467 22.2763 20.4659C22.3014 20.4631 22.3263 20.4598 22.3511 20.4556C22.3581 20.4545 22.3648 20.4534 22.3718 20.4522C22.3757 20.4514 22.3799 20.4508 22.3838 20.45C22.388 20.4494 22.3925 20.4486 22.3966 20.4478C22.4142 20.4447 22.4315 20.4408 22.4491 20.4369C22.4547 20.4358 22.4606 20.4344 22.4662 20.433C22.4871 20.4282 22.5081 20.4232 22.529 20.4176C22.5337 20.4162 22.5388 20.4148 22.5435 20.4134C22.5444 20.4131 22.5452 20.4129 22.5458 20.4129C22.5505 20.4115 22.555 20.4101 22.5594 20.409C22.5871 20.4011 22.6144 20.3925 22.6415 20.3833C22.6449 20.3822 22.6482 20.381 22.6513 20.3799C22.6795 20.3701 22.7074 20.3595 22.7353 20.3484C22.7376 20.3475 22.7398 20.3467 22.742 20.3456C22.7627 20.3372 22.7831 20.3285 22.8032 20.3193C22.8065 20.3177 22.8099 20.3163 22.8132 20.3149C22.818 20.3126 22.8225 20.3104 22.8272 20.3082C22.8283 20.3076 22.8294 20.3073 22.8306 20.3068C22.9096 20.2693 22.9855 20.2263 23.0584 20.1778C23.0601 20.1766 23.0618 20.1755 23.0634 20.1744C23.1427 20.1214 23.2178 20.0616 23.2879 19.9963C23.2885 19.9957 23.2891 19.9951 23.2896 19.9946C23.53 19.7693 23.7115 19.4741 23.7967 19.1262C24.0083 18.262 23.1391 16.5464 23.1391 16.5464C23.124 15.7841 23.969 15.0177 23.7741 14.2531C23.6828 13.8949 23.4895 13.5939 23.2357 13.3683L15.9275 6.0601Z" fill="url(#paint5_linear_8_13838)"/>
<path d="M0.717773 10.8081V7.74978C0.717773 7.35524 1.03749 7.03552 1.43231 7.03552H36.6019C36.9965 7.03552 37.3165 7.35524 37.3165 7.74978V10.8081C37.3165 11.2027 36.9968 11.5227 36.6019 11.5227H1.43231C1.03749 11.5227 0.717773 11.2027 0.717773 10.8081H0.717773Z" fill="url(#paint6_linear_8_13838)"/>
<path d="M13.6201 11.5227H20.8001L16.3127 7.03552H13.6201V11.5227Z" fill="url(#paint7_linear_8_13838)"/>
<path d="M11.3888 21.9557H8.33047C7.93592 21.9557 7.61621 21.6357 7.61621 21.2412V1.35553C7.61621 0.960984 7.93592 0.640991 8.33047 0.640991H11.3888C11.7834 0.640991 12.1034 0.960705 12.1034 1.35553V21.2412C12.1034 21.6357 11.7834 21.9557 11.3888 21.9557Z" fill="url(#paint8_linear_8_13838)"/>
<path d="M7.61621 11.9768L12.1037 16.4643V10.027H7.61621V11.9768Z" fill="url(#paint9_linear_8_13838)"/>
<path d="M9.28252 7.73513C8.88937 7.41011 8.45741 7.07979 7.86154 6.75589C7.22602 6.4102 6.53103 5.99639 5.80895 5.6817C4.80066 5.24248 3.63434 5.81797 3.3727 6.88628C3.18506 7.65276 4.03726 8.41142 4.02916 9.1737C4.02916 9.1737 3.17585 10.8971 3.3956 11.7593C3.66701 12.8251 4.83892 13.3897 5.84301 12.941C6.56202 12.6196 7.2531 12.1994 7.88527 11.8479C8.47807 11.5181 8.90696 11.1839 9.29732 10.8552C10.2668 10.0387 10.2598 8.54237 9.28252 7.73513Z" fill="url(#paint10_linear_8_13838)"/>
<path d="M15.6846 9.09239C15.6695 8.33011 16.5145 7.56335 16.3196 6.79883C16.0481 5.73303 14.8762 5.16843 13.8721 5.61715C13.1531 5.93854 12.462 6.35877 11.8299 6.71032C11.2371 7.04008 10.8082 7.37432 10.4181 7.70269C9.44836 8.51942 9.45562 10.0158 10.4326 10.823C10.8258 11.1478 11.2577 11.4781 11.8539 11.8023C12.4894 12.148 13.1841 12.5615 13.9062 12.8762C14.9145 13.3157 16.0811 12.7402 16.3424 11.6719C16.5541 10.8077 15.6846 9.09239 15.6846 9.09239Z" fill="url(#paint11_linear_8_13838)"/>
<path d="M9.2967 10.8555C9.60553 10.5952 9.81467 10.266 9.92552 9.91223C8.13233 10.0814 5.33253 10.7024 4.28516 12.8879C4.74867 13.1331 5.31829 13.1753 5.8424 12.941C6.56141 12.6196 7.25249 12.1994 7.88466 11.8481C8.47773 11.5183 8.90635 11.1838 9.2967 10.8555Z" fill="url(#paint12_linear_8_13838)"/>
<path d="M4.77052 9.17474C4.77387 9.89235 4.86825 11.8662 6.84768 12.4322C7.20649 12.2345 7.55357 12.0318 7.88445 11.8478C8.47753 11.5183 8.90614 11.1838 9.2965 10.8554C9.83987 10.3977 10.0764 9.72649 10.0074 9.08259C10.0074 9.08259 8.9684 8.52777 8.50712 8.30718C6.01503 7.11433 4.76577 8.16506 4.77052 9.17474Z" fill="url(#paint13_linear_8_13838)"/>
<path d="M10.4317 10.8232C10.1204 10.5658 9.90815 10.2388 9.79395 9.88586C11.5885 10.0383 14.3942 10.6331 15.462 12.8088C15.0007 13.0581 14.4316 13.1056 13.9053 12.8764C13.1832 12.5617 12.4882 12.1479 11.853 11.8025C11.2568 11.4783 10.8248 11.148 10.4317 10.8232Z" fill="url(#paint14_linear_8_13838)"/>
<path d="M14.9424 9.10013C14.9458 9.81774 14.8701 11.7924 12.896 12.3768C12.5355 12.1825 12.1865 11.9831 11.8536 11.8022C11.2578 11.4783 10.8258 11.148 10.4327 10.823C9.88483 10.3706 9.64218 9.70158 9.705 9.05685C9.705 9.05685 10.7387 8.49253 11.198 8.26748C13.6789 7.05145 14.9377 8.09073 14.9424 9.10013Z" fill="url(#paint15_linear_8_13838)"/>
<path d="M16.0315 12.3232L11.5935 7.88543C11.3855 7.6626 11.1345 7.48055 10.8544 7.35071C10.7005 7.46854 10.5567 7.5861 10.418 7.70281C9.4485 8.51927 9.45548 10.0156 10.4328 10.8232C10.8259 11.1479 11.2579 11.4782 11.854 11.8024C12.4893 12.1478 13.1843 12.5616 13.9063 12.8763C14.6829 13.2147 15.5529 12.9506 16.0315 12.3232Z" fill="url(#paint16_linear_8_13838)"/>
<path d="M12.2315 9.50391C12.2315 10.8135 11.1696 11.8754 9.86003 11.8754C8.55018 11.8754 7.48828 10.8135 7.48828 9.50391C7.48828 8.19406 8.55018 7.13245 9.86003 7.13245C11.1696 7.13245 12.2315 8.19406 12.2315 9.50391Z" fill="url(#paint17_linear_8_13838)"/>
<defs>
<linearGradient id="paint0_linear_8_13838" x1="9.53536" y1="1.81733" x2="34.2782" y2="26.5602" gradientUnits="userSpaceOnUse">
<stop stop-color="#FFD459"/>
<stop offset="0.2296" stop-color="#FFD355"/>
<stop offset="0.4362" stop-color="#FFCF4A"/>
<stop offset="0.634" stop-color="#FFC838"/>
<stop offset="0.825" stop-color="#FFBF1F"/>
<stop offset="1" stop-color="#FFB400"/>
</linearGradient>
<linearGradient id="paint1_linear_8_13838" x1="19.0158" y1="18.7062" x2="19.0158" y2="22.3797" gradientUnits="userSpaceOnUse">
<stop stop-color="#E58200" stop-opacity="0"/>
<stop offset="0.0396" stop-color="#E27F04" stop-opacity="0.039216"/>
<stop offset="0.4671" stop-color="#C15D2F" stop-opacity="0.466667"/>
<stop offset="0.8016" stop-color="#AD4949" stop-opacity="0.8"/>
<stop offset="1" stop-color="#A64153"/>
</linearGradient>
<linearGradient id="paint2_linear_8_13838" x1="4.1216" y1="13.0766" x2="3.15426" y2="10.8655" gradientUnits="userSpaceOnUse">
<stop stop-color="#E58200" stop-opacity="0"/>
<stop offset="0.0396" stop-color="#E27F04" stop-opacity="0.039216"/>
<stop offset="0.4671" stop-color="#C15D2F" stop-opacity="0.466667"/>
<stop offset="0.8016" stop-color="#AD4949" stop-opacity="0.8"/>
<stop offset="1" stop-color="#A64153"/>
</linearGradient>
<linearGradient id="paint3_linear_8_13838" x1="13.936" y1="3.9655" x2="8.32659" y2="0.00153162" gradientUnits="userSpaceOnUse">
<stop stop-color="#E58200" stop-opacity="0"/>
<stop offset="0.0396" stop-color="#E27F04" stop-opacity="0.039216"/>
<stop offset="0.4671" stop-color="#C15D2F" stop-opacity="0.466667"/>
<stop offset="0.8016" stop-color="#AD4949" stop-opacity="0.8"/>
<stop offset="1" stop-color="#A64153"/>
</linearGradient>
<linearGradient id="paint4_linear_8_13838" x1="11.4941" y1="3.60863" x2="31.5597" y2="23.677" gradientUnits="userSpaceOnUse">
<stop stop-color="#FFFCF8"/>
<stop offset="0.1875" stop-color="#FAF8F6"/>
<stop offset="0.4041" stop-color="#ECEEF2"/>
<stop offset="0.6353" stop-color="#D5DCEA"/>
<stop offset="0.875" stop-color="#B5C4DF"/>
<stop offset="1" stop-color="#A1B5D8"/>
</linearGradient>
<linearGradient id="paint5_linear_8_13838" x1="15.1006" y1="16.4709" x2="8.81812" y2="2.11092" gradientUnits="userSpaceOnUse">
<stop stop-color="#A1B5D8" stop-opacity="0"/>
<stop offset="0.0343" stop-color="#9FB3D5" stop-opacity="0.035294"/>
<stop offset="0.4515" stop-color="#8898AF" stop-opacity="0.45098"/>
<stop offset="0.788" stop-color="#798898" stop-opacity="0.788235"/>
<stop offset="1" stop-color="#748290"/>
</linearGradient>
<linearGradient id="paint6_linear_8_13838" x1="19.0171" y1="8.38142" x2="19.0171" y2="13.2429" gradientUnits="userSpaceOnUse">
<stop stop-color="#FF6E3A"/>
<stop offset="0.1596" stop-color="#FF6440"/>
<stop offset="0.4266" stop-color="#FF4B52"/>
<stop offset="0.7662" stop-color="#FF216E"/>
<stop offset="1" stop-color="#FF0084"/>
</linearGradient>
<linearGradient id="paint7_linear_8_13838" x1="17.958" y1="12.2706" x2="12.6976" y2="7.01018" gradientUnits="userSpaceOnUse">
<stop stop-color="#E58200" stop-opacity="0"/>
<stop offset="0.4384" stop-color="#C4602C" stop-opacity="0.439216"/>
<stop offset="0.7953" stop-color="#AE4948" stop-opacity="0.796078"/>
<stop offset="1" stop-color="#A64153"/>
</linearGradient>
<linearGradient id="paint8_linear_8_13838" x1="9.8597" y1="10.0615" x2="9.8597" y2="26.8118" gradientUnits="userSpaceOnUse">
<stop stop-color="#FF6E3A"/>
<stop offset="0.1596" stop-color="#FF6440"/>
<stop offset="0.4266" stop-color="#FF4B52"/>
<stop offset="0.7662" stop-color="#FF216E"/>
<stop offset="1" stop-color="#FF0084"/>
</linearGradient>
<linearGradient id="paint9_linear_8_13838" x1="12.7325" y1="13.8744" x2="7.807" y2="8.94894" gradientUnits="userSpaceOnUse">
<stop stop-color="#E58200" stop-opacity="0"/>
<stop offset="0.4384" stop-color="#C4602C" stop-opacity="0.439216"/>
<stop offset="0.7953" stop-color="#AE4948" stop-opacity="0.796078"/>
<stop offset="1" stop-color="#A64153"/>
</linearGradient>
<linearGradient id="paint10_linear_8_13838" x1="7.56166" y1="13.6257" x2="5.56168" y2="6.06483" gradientUnits="userSpaceOnUse">
<stop stop-color="#FF0084"/>
<stop offset="0.2338" stop-color="#FF216E"/>
<stop offset="0.5734" stop-color="#FF4B52"/>
<stop offset="0.8404" stop-color="#FF6440"/>
<stop offset="1" stop-color="#FF6E3A"/>
</linearGradient>
<linearGradient id="paint11_linear_8_13838" x1="12.7641" y1="13.9846" x2="13.447" y2="4.71639" gradientUnits="userSpaceOnUse">
<stop stop-color="#FF0084"/>
<stop offset="0.2338" stop-color="#FF216E"/>
<stop offset="0.5734" stop-color="#FF4B52"/>
<stop offset="0.8404" stop-color="#FF6440"/>
<stop offset="1" stop-color="#FF6E3A"/>
</linearGradient>
<linearGradient id="paint12_linear_8_13838" x1="7.14281" y1="12.2831" x2="7.00182" y2="9.41465" gradientUnits="userSpaceOnUse">
<stop stop-color="#E58200" stop-opacity="0"/>
<stop offset="0.4384" stop-color="#C4602C" stop-opacity="0.439216"/>
<stop offset="0.7953" stop-color="#AE4948" stop-opacity="0.796078"/>
<stop offset="1" stop-color="#A64153"/>
</linearGradient>
<linearGradient id="paint13_linear_8_13838" x1="6.4704" y1="10.1542" x2="11.2698" y2="6.27756" gradientUnits="userSpaceOnUse">
<stop stop-color="#E58200" stop-opacity="0"/>
<stop offset="0.4384" stop-color="#C4602C" stop-opacity="0.439216"/>
<stop offset="0.7953" stop-color="#AE4948" stop-opacity="0.796078"/>
<stop offset="1" stop-color="#A64153"/>
</linearGradient>
<linearGradient id="paint14_linear_8_13838" x1="12.5854" y1="12.2302" x2="12.6995" y2="9.36007" gradientUnits="userSpaceOnUse">
<stop stop-color="#E58200" stop-opacity="0"/>
<stop offset="0.4384" stop-color="#C4602C" stop-opacity="0.439216"/>
<stop offset="0.7953" stop-color="#AE4948" stop-opacity="0.796078"/>
<stop offset="1" stop-color="#A64153"/>
</linearGradient>
<linearGradient id="paint15_linear_8_13838" x1="13.2387" y1="10.095" x2="8.40304" y2="6.26358" gradientUnits="userSpaceOnUse">
<stop stop-color="#E58200" stop-opacity="0"/>
<stop offset="0.4384" stop-color="#C4602C" stop-opacity="0.439216"/>
<stop offset="0.7953" stop-color="#AE4948" stop-opacity="0.796078"/>
<stop offset="1" stop-color="#A64153"/>
</linearGradient>
<linearGradient id="paint16_linear_8_13838" x1="13.7122" y1="12.0589" x2="10.0177" y2="8.36436" gradientUnits="userSpaceOnUse">
<stop stop-color="#E58200" stop-opacity="0"/>
<stop offset="0.4384" stop-color="#C4602C" stop-opacity="0.439216"/>
<stop offset="0.7953" stop-color="#AE4948" stop-opacity="0.796078"/>
<stop offset="1" stop-color="#A64153"/>
</linearGradient>
<linearGradient id="paint17_linear_8_13838" x1="8.48871" y1="8.13263" x2="11.8855" y2="11.5294" gradientUnits="userSpaceOnUse">
<stop stop-color="#FF6E3A"/>
<stop offset="0.1596" stop-color="#FF6440"/>
<stop offset="0.4266" stop-color="#FF4B52"/>
<stop offset="0.7662" stop-color="#FF216E"/>
<stop offset="1" stop-color="#FF0084"/>
</linearGradient>
</defs>
</svg>
