<svg width="30" height="34" viewBox="0 0 30 34" fill="none" xmlns="http://www.w3.org/2000/svg">
<path d="M27.8127 14.2044L22.2344 10.9828L14.5918 16.6932L22.2343 22.4035L27.8315 19.1709C28.7043 18.6406 29.2251 17.7141 29.2251 16.6933C29.2251 15.6724 28.7042 14.746 27.8127 14.2044Z" fill="#FF9100"/>
<path d="M16.5255 16.6933C16.5171 16.7041 9.76816 25.3813 9.76268 25.3883L0.971064 32.3122C0.429976 31.7711 0.101562 31.0369 0.101562 30.2253V3.11347C0.101562 2.302 0.429976 1.56769 0.971064 1.02673L9.76268 7.99833C9.76816 8.00535 16.5171 16.6826 16.5255 16.6933Z" fill="#25D9F8"/>
<path d="M16.524 16.6933L14.5918 19.1858V14.2007L16.524 16.6933Z" fill="#00C0F1"/>
<path d="M22.2446 10.9739L16.5251 16.6934L0.970703 1.02682C1.16386 0.852859 1.35715 0.717603 1.56969 0.582347C2.4971 0.0607111 3.59853 0.0799689 4.50674 0.640378L14.5929 6.56851L22.2446 10.9739Z" fill="#7FE881"/>
<path d="M22.2435 10.974L16.524 16.6935L14.5918 14.7612V6.5686L22.2435 10.974Z" fill="#5BC980"/>
<path d="M22.2446 22.4129L14.5929 26.8185L4.48742 32.7182C4.02368 32.9886 3.5213 33.1432 2.99954 33.1432C2.51648 33.1432 2.03343 33.008 1.56969 32.7568C1.35715 32.6215 1.16386 32.4863 0.970703 32.3124L16.5251 16.6936L22.2446 22.4129Z" fill="#FF637B"/>
<path d="M22.2435 22.4129L14.5918 26.8185V18.6258L16.524 16.6936L22.2435 22.4129Z" fill="#E63950"/>
</svg>
