<svg width="35" height="34" viewBox="0 0 35 34" fill="none" xmlns="http://www.w3.org/2000/svg">
<path d="M17.1804 0.205078C7.86223 0.205078 0.308594 7.75872 0.308594 17.0769C0.308594 26.395 7.86223 33.9487 17.1804 33.9487C26.4985 33.9487 34.0522 26.395 34.0522 17.0769C34.0522 7.75872 26.4985 0.205078 17.1804 0.205078ZM17.1804 32.5314C8.64512 32.5314 1.72582 25.6121 1.72582 17.0769C1.72582 8.5416 8.64512 1.6223 17.1804 1.6223C25.7157 1.6223 32.635 8.5416 32.635 17.0769C32.635 25.6121 25.7157 32.5314 17.1804 32.5314Z" fill="white"/>
<path d="M22.7336 25.0402C23.724 24.7429 24.4232 24.0221 24.7098 23.0036L24.794 22.7039L24.805 14.6743C24.8135 8.66094 24.8056 6.60705 24.7729 6.49507C24.7384 6.37639 24.684 6.2765 24.6125 6.19772C24.5079 6.13156 24.3818 6.0968 24.2392 6.0968C24.1406 6.0968 23.7987 6.14546 23.4797 6.20493C22.0684 6.46778 13.7497 8.16356 13.6078 8.2171C13.3879 8.30026 13.1701 8.49797 13.0669 8.70779L12.9794 8.88543C12.9794 8.88543 12.9382 21.4713 12.8743 21.6132C12.7773 21.8286 12.5623 22.033 12.3641 22.0982C12.2701 22.1291 11.8984 22.2143 11.538 22.2877C9.86895 22.6277 9.24903 22.8726 8.72462 23.3993C8.42702 23.6984 8.20639 24.1068 8.11088 24.5354C8.02 24.945 8.05038 25.558 8.18038 25.9305C8.31631 26.3205 8.5354 26.6534 8.82193 26.9152C9.08221 27.1206 9.3896 27.2736 9.73508 27.3639C10.4992 27.5642 11.9293 27.3415 12.6609 26.9088C12.9665 26.7278 13.3599 26.3478 13.5646 26.0355C13.6454 25.9122 13.7674 25.663 13.8354 25.4825C14.0735 24.8495 14.081 13.5742 14.1116 13.4321C14.1631 13.1914 14.324 13.0148 14.5459 12.9551C14.7457 12.9013 22.7558 11.2804 22.9811 11.2482C23.1795 11.2199 23.367 11.2853 23.4692 11.414C23.5299 11.4475 23.5809 11.4926 23.6169 11.5476C23.6818 11.6468 23.6859 11.8429 23.6955 15.4126C23.7068 19.5214 23.7114 19.4251 23.4934 19.6844C23.3348 19.8731 23.1363 19.946 22.3223 20.1159C21.0837 20.3746 20.6597 20.4977 20.1855 20.7348C19.5931 21.0308 19.2641 21.3552 19.01 21.894C18.83 22.2753 18.7628 22.5611 18.7634 22.9405C18.7646 23.6189 18.9933 24.149 19.5092 24.668C19.5565 24.7156 19.6034 24.7601 19.6503 24.8021C19.9103 25.0075 20.1752 25.1314 20.5083 25.2099C21.0108 25.3283 22.0337 25.2503 22.7336 25.0402Z" fill="white"/>
</svg>
