<svg width="31" height="27" viewBox="0 0 31 27" fill="none" xmlns="http://www.w3.org/2000/svg">
<path d="M22.9861 0C18.782 0 15.3524 3.48696 15.3197 7.78616L10.5457 14.8053C9.21375 14.6812 8.06511 14.9644 7.04954 15.5995L0.511719 12.8873V20.2945L4.37817 21.8892C4.9368 24.5264 7.23784 26.5143 9.96068 26.5143C12.9208 26.5143 15.3737 24.1824 15.6436 21.2128L22.9936 15.7043C27.2103 15.7043 30.6399 12.1979 30.6399 7.84954L30.6387 7.84825C30.6387 3.52059 27.2091 0 22.9861 0ZM9.96068 24.9519C8.34505 24.9519 6.95413 24.0194 6.24738 22.6601C6.93279 22.9291 7.62574 23.2253 8.31241 23.5021C10.0285 24.2263 11.978 23.3637 12.6634 21.6034C13.3564 19.8431 12.5153 17.8564 10.8018 17.1515L9.05307 16.4273C9.3556 16.3574 9.65814 16.3238 9.96068 16.3238C12.2944 16.3238 14.1636 18.2419 14.1636 20.6372C14.1636 23.0338 12.2944 24.9519 9.96068 24.9519ZM22.9936 13.1097C20.1553 13.1097 17.8492 10.7622 17.8492 7.84954C17.8492 4.94977 20.149 2.58935 22.9936 2.58935C25.8119 2.58935 28.1179 4.94977 28.1179 7.84954C28.1179 10.77 25.8106 13.1175 22.9936 13.1097Z" fill="white"/>
<path d="M23.0075 3.62939C20.7416 3.62939 18.9062 5.51385 18.9062 7.83935C18.9062 10.1649 20.7353 12.0493 23.0075 12.0493C25.2595 12.0493 27.1087 10.1713 27.1087 7.83935C27.1087 5.50739 25.2595 3.62939 23.0075 3.62939Z" fill="white"/>
</svg>
